<?xml version="1.0" encoding="utf-8"?>
<!-- Generator: Adobe Illustrator 16.0.0, SVG Export Plug-In . SVG Version: 6.00 Build 0)  -->
<!DOCTYPE svg PUBLIC "-//W3C//DTD SVG 1.1//EN" "http://www.w3.org/Graphics/SVG/1.1/DTD/svg11.dtd">
<svg version="1.1" id="Layer_1" xmlns="http://www.w3.org/2000/svg" xmlns:xlink="http://www.w3.org/1999/xlink" x="0px" y="0px"
	 width="1040.948px" height="664.467px" viewBox="0 0 1040.948 664.467" enable-background="new 0 0 1040.948 664.467"
	 xml:space="preserve">
<g>
	<path fill="#FF8103" d="M615.307,652.729c2.939,0.552,5.775-1.299,6.485-4.167l0,0l0,0c0.027-0.107,0.053-0.216,0.073-0.325
		c0.141-0.757,0.333-1.666,0.453-2.63c2.455-11.644,8.918-19.405,19.795-19.405c11.598,0,18.175,8.817,20.23,21.752
		c0.018,0.143,0.038,0.285,0.067,0.43c0.602,3.032,3.516,5.002,6.542,4.402c2.914-0.578,4.905-3.309,4.516-6.219l0,0l0,0
		c-0.007-0.04-0.011-0.077-0.02-0.117c-0.01-0.071-0.021-0.145-0.037-0.218l0,0l0,0c-0.007-0.038-0.015-0.073-0.023-0.109
		c0.009,0.036,0.015,0.069,0.021,0.104c-3.016-17.649-13.494-30.152-31.297-30.152c-17.658,0-28.105,12.304-31.22,29.726v0.002
		c-0.017,0.059-0.029,0.117-0.042,0.176c-0.004,0.006-0.004,0.009-0.004,0.017c-0.015,0.059-0.027,0.117-0.04,0.176
		c-0.013,0.093-0.027,0.185-0.042,0.274c-0.01,0.091-0.021,0.177-0.029,0.263c0,0.004,0,0.01-0.002,0.015l0,0
		C610.487,649.568,612.438,652.195,615.307,652.729z"/>
	<polygon fill="#FF8103" points="673.412,646.232 673.41,646.227 673.41,646.23 	"/>
</g>
<g>
	<path fill="#FF8103" d="M544.789,543.241c-2.939-0.551-5.776,1.299-6.485,4.168l0,0v0.002c-0.027,0.104-0.055,0.214-0.071,0.322
		c-0.143,0.757-0.333,1.666-0.454,2.628c-2.456,11.645-8.92,19.409-19.798,19.409c-11.594,0-18.173-8.816-20.229-21.756
		c-0.019-0.141-0.04-0.283-0.067-0.426c-0.602-3.034-3.514-5.004-6.544-4.404c-2.914,0.578-4.905,3.311-4.513,6.219l0,0l0,0
		c0.006,0.038,0.01,0.078,0.017,0.118c0.01,0.073,0.024,0.146,0.04,0.218v-0.002v0.006c0.006,0.036,0.014,0.069,0.022,0.104
		c-0.009-0.035-0.017-0.068-0.022-0.104c3.017,17.649,13.494,30.15,31.296,30.15c17.66,0,28.108-12.3,31.224-29.723l0,0
		c0.013-0.061,0.027-0.119,0.04-0.179c0.002-0.006,0.002-0.01,0.006-0.015c0.011-0.059,0.025-0.119,0.036-0.178
		c0.017-0.09,0.029-0.185,0.042-0.274c0.01-0.086,0.022-0.176,0.029-0.262c0-0.007,0.004-0.009,0.004-0.009v-0.006
		C549.608,546.403,547.66,543.777,544.789,543.241z"/>
	<polygon fill="#FF8103" points="486.685,549.739 486.685,549.743 486.685,549.743 	"/>
</g>
<path fill="#FF8103" d="M863.391,491.834c0,3.57-2.074,6.219-5.53,6.219c-3.686,0-5.527-2.648-5.527-6.219v-49.64
	c0-3.053,2.475-5.53,5.527-5.53c3.056,0,5.53,2.478,5.53,5.53V491.834z"/>
<path fill="#FF8103" d="M596.152,47.726c0,3.57-2.072,6.22-5.527,6.22c-3.684,0-5.527-2.649-5.527-6.22V17.373
	c0-3.053,2.475-5.527,5.527-5.527c3.056,0,5.527,2.475,5.527,5.527V47.726z"/>
<path fill="#FF8103" d="M725.605,116.815c0-3.225,2.189-5.643,5.527-5.643c2.074,0,3.688,0.922,5.071,3.107
	c4.719,7.717,9.79,11.403,20.96,11.403c11.058,0,17.161-4.491,17.161-13.36c0-21.078-45.726-8.407-45.726-36.28
	c0-15.778,13.362-23.149,27.643-23.149c11.862,0,19.812,4.146,24.762,12.437c1.039,1.73,1.498,3.344,1.498,4.725
	c0,3.684-2.648,5.758-5.643,5.758c-2.07,0-3.802-1.037-4.952-3.34c-3.225-6.797-7.95-9.443-15.665-9.443
	c-9.559,0-16.585,3.686-16.585,13.014c0,16.124,45.726,6.565,45.726,36.052c0,15.894-13.937,23.724-28.219,23.724
	c-12.669,0-23.38-4.375-30.176-14.858C726.066,119.461,725.605,118.083,725.605,116.815z"/>
<g>
	<path fill="#FF8103" d="M134.974,182.04c2.941,0.549,5.776-1.302,6.487-4.17v0.002c0-0.002,0-0.002,0-0.002
		c0.027-0.106,0.051-0.216,0.072-0.327c0.142-0.754,0.332-1.663,0.456-2.625c2.456-11.646,8.916-19.408,19.795-19.408
		c11.596,0,18.173,8.815,20.231,21.755c0.017,0.141,0.038,0.283,0.066,0.425c0.601,3.034,3.516,5.004,6.543,4.405
		c2.914-0.579,4.905-3.309,4.512-6.22l0,0l0,0c-0.003-0.039-0.01-0.077-0.017-0.117c-0.011-0.073-0.021-0.145-0.037-0.22v0.004
		l-0.001-0.006c-0.006-0.036-0.016-0.069-0.023-0.105c0.008,0.036,0.017,0.069,0.023,0.105
		c-3.018-17.649-13.495-30.151-31.297-30.151c-17.658,0-28.106,12.301-31.222,29.724l0,0c-0.015,0.061-0.027,0.121-0.041,0.181
		c-0.002,0.002-0.003,0.008-0.004,0.014c-0.013,0.062-0.025,0.118-0.037,0.177c-0.018,0.092-0.031,0.185-0.044,0.278
		c-0.012,0.086-0.021,0.172-0.029,0.258c0,0.006-0.001,0.011-0.001,0.013l0,0C130.155,178.875,132.105,181.503,134.974,182.04z"/>
	<polygon fill="#FF8103" points="193.081,175.538 193.08,175.536 193.08,175.536 	"/>
</g>
<g>
	<path fill="#FF8103" d="M224.101,235.747c-2.941-0.55-5.775,1.301-6.487,4.167l0,0l0,0c-0.027,0.109-0.052,0.218-0.072,0.327
		c-0.143,0.754-0.333,1.666-0.456,2.628c-2.456,11.644-8.917,19.409-19.796,19.409c-11.596,0-18.173-8.819-20.229-21.756
		c-0.018-0.143-0.039-0.285-0.067-0.426c-0.601-3.034-3.515-5.004-6.544-4.404c-2.914,0.576-4.904,3.309-4.513,6.219l0,0l0,0
		c0.005,0.038,0.011,0.075,0.018,0.115c0.011,0.073,0.023,0.146,0.038,0.22v-0.002v0.005c0.006,0.035,0.016,0.071,0.024,0.106
		c-0.008-0.035-0.018-0.071-0.024-0.106c3.018,17.649,13.495,30.15,31.297,30.15c17.659,0,28.108-12.298,31.222-29.722l0,0
		c0.016-0.061,0.029-0.119,0.043-0.18c0.001-0.004,0.002-0.011,0.002-0.011c0.014-0.064,0.025-0.123,0.038-0.182
		c0.017-0.093,0.032-0.183,0.043-0.277c0.012-0.086,0.021-0.172,0.029-0.26c0.001-0.004,0.001-0.008,0.001-0.013l0,0
		C228.918,238.906,226.97,236.283,224.101,235.747z"/>
	<polygon fill="#FF8103" points="165.994,242.246 165.994,242.249 165.994,242.249 	"/>
</g>
<path fill="#FF8103" d="M487.41,109.893c-3.227,0-5.643-2.189-5.643-5.529c0-2.072,0.92-3.687,3.107-5.067
	c7.72-4.723,11.404-9.789,11.404-20.962c0-11.058-4.494-17.16-13.362-17.16c-21.076,0-8.407,45.723-36.278,45.723
	c-15.779,0-23.151-13.358-23.151-27.641c0-11.862,4.146-19.812,12.438-24.764c1.729-1.037,3.341-1.496,4.723-1.496
	c3.688,0,5.761,2.648,5.761,5.644c0,2.072-1.039,3.8-3.341,4.951c-6.795,3.226-9.445,7.948-9.445,15.665
	c0,9.56,3.684,16.585,13.015,16.585c16.123,0,6.563-45.726,36.049-45.726c15.894,0,23.725,13.937,23.725,28.219
	c0,12.669-4.375,23.381-14.855,30.176C490.06,109.432,488.677,109.893,487.41,109.893z"/>
<path fill="#FF8103" d="M967.383,184.339c0-3.457,2.188-6.219,5.643-6.219c3.34,0,5.414,2.762,5.414,6.219v44.687
	c0,14.974,6.911,20.731,18.312,20.731c11.287,0,18.083-5.758,18.083-20.731v-44.687c0-3.457,2.072-6.219,5.525-6.219
	c3.457,0,5.529,2.762,5.529,6.219v44.687c0,18.083-10.133,30.867-29.138,30.867c-19.119,0-29.369-12.784-29.369-30.52V184.339z"/>
<path fill="#FF8103" d="M949.049,129.824c0,2.802-2.271,5.069-5.071,5.069c-2.799,0-5.07-2.268-5.07-5.069l-0.038-10.485
	c0-8.293-4.836-11.748-12.438-11.748c-7.371,0-13.132,3.34-13.132,12.556l-0.002,9.681c0,2.799-2.265,5.066-5.064,5.066
	c-2.797,0-5.066-2.268-5.066-5.066v-6.11c0-8.294-4.953-12.095-11.979-12.095c-7.025,0-12.669,3.801-12.669,12.095v3.225l0.051,2.86
	c0,2.814-2.278,5.092-5.092,5.092c-2.814,0-5.094-2.277-5.094-5.092v-2.089v-4.688c0-12.095,7.945-22.459,22.804-22.459
	c8.87,0,14.052,4.839,16.239,9.329c2.535-7.487,9.446-13.36,18.657-13.36c13.017,0,22.922,9.099,22.922,21.997L949.049,129.824z"/>
<path fill="#FF8103" d="M152.373,329.391c9.904,0,17.391,2.072,25.223,10.021c1.498,1.498,2.073,3.111,2.073,4.492
	c0,3.109-2.878,5.644-5.76,5.644c-1.381,0-2.648-0.576-3.801-1.842c-5.181-5.874-10.825-8.179-17.735-8.179
	c-16.009,0-21.883,15.896-21.883,31.328c0,15.435,5.874,31.326,21.883,31.326c6.911,0,12.554-2.303,17.735-8.177
	c1.153-1.268,2.42-1.842,3.801-1.842c2.881,0,5.76,2.534,5.76,5.644c0,1.383-0.576,2.994-2.073,4.492
	c-7.832,7.945-15.318,10.021-25.223,10.021c-20.962,0-33.17-16.124-33.17-41.464S131.41,329.391,152.373,329.391z"/>
<path fill="#FF8103" d="M342.165,511.066c0,3.572-2.073,6.221-5.528,6.221c-3.687,0-5.527-2.648-5.527-6.221v-68.871
	c0-3.056,2.474-5.53,5.527-5.53s5.528,2.475,5.528,5.53V511.066z"/>
<path fill="#FF8103" d="M85.84,521.992c3.292,0,5.731,1.91,5.731,5.094c0,3.395-2.44,5.092-5.731,5.092H31.475
	c-2.812,0-5.092-2.28-5.092-5.092c0-2.814,2.28-5.094,5.092-5.094H85.84z"/>
<path fill="#FF8103" d="M761.54,430.893c3.29,0,5.73,1.909,5.73,5.094c0,3.396-2.44,5.094-5.73,5.094H719.5
	c-2.814,0-5.096-2.281-5.096-5.094c0-2.813,2.281-5.094,5.096-5.094H761.54z"/>
<path fill="#FF8103" d="M995.945,530.603c3.289,0,5.73,1.911,5.73,5.097c0,3.396-2.441,5.094-5.73,5.094h-37.091
	c-2.812,0-5.092-2.282-5.092-5.094c0-2.814,2.279-5.097,5.092-5.097H995.945z"/>
<path fill="#FF8103" d="M851.302,593.855c3.29,0,5.733,1.908,5.733,5.092c0,3.396-2.443,5.094-5.733,5.094h-37.088
	c-2.814,0-5.094-2.28-5.094-5.094c0-2.814,2.279-5.092,5.094-5.092H851.302z"/>
<path fill="#FF8103" d="M878.165,224.499c3.292,0,5.73,1.911,5.73,5.094c0,3.396-2.438,5.094-5.73,5.094h-15.213
	c-2.812,0-5.092-2.279-5.092-5.094s2.28-5.094,5.092-5.094H878.165z"/>
<g>
	<path fill="#FF8103" d="M214.866,581.557c0,3.57-2.072,6.219-5.528,6.219c-3.685,0-5.527-2.648-5.527-6.219v-68.878
		c0-3.051,2.475-5.525,5.527-5.525c3.054,0,5.528,2.475,5.528,5.525V581.557z"/>
	<path fill="#FF8103" d="M251.121,507.101c3.289,0,5.73,1.911,5.73,5.094c0,3.395-2.441,5.092-5.73,5.092h-39.236
		c-2.813,0-5.094-2.279-5.094-5.092c0-2.813,2.281-5.094,5.094-5.094H251.121z"/>
	<path fill="#FF8103" d="M252.528,577.588c3.291,0,5.731,1.911,5.731,5.094c0,3.395-2.44,5.094-5.731,5.094h-43.191
		c-2.812,0-5.092-2.282-5.092-5.094c0-2.814,2.28-5.094,5.092-5.094H252.528z"/>
</g>
<path fill="#FF8103" d="M761.442,326.312c0,3.572-2.074,6.219-5.53,6.219c-3.688,0-5.529-2.646-5.529-6.219V259.42
	c0-3.055,2.477-5.527,5.529-5.527c3.054,0,5.53,2.473,5.53,5.527V326.312z"/>
<path fill="#FF8103" d="M25.438,413.486c0,3.57-2.073,6.219-5.528,6.219c-3.685,0-5.528-2.648-5.528-6.219V344.61
	c0-3.055,2.474-5.527,5.528-5.527c3.053,0,5.528,2.473,5.528,5.527V413.486z"/>
<path fill="#FF8103" d="M906.757,341.199c-2.84,0-5.649,0-5.649,0c-2.802,0-5.071-2.27-5.071-5.066c0-2.8,2.27-5.068,5.071-5.068
	l7.376,0.002c9.674,0,15.009-6.637,15.009-15.16c0-8.755-5.335-14.397-15.009-14.397h-6.094h-1.282c-2.802,0-5.071-2.27-5.071-5.067
	c0-2.799,2.27-5.068,5.071-5.068h6.685c16.933,0,26.758,10.136,26.758,24.533C934.55,326.847,932.582,341.199,906.757,341.199z"/>
<path fill="#FF8103" d="M293.797,348.571c-3.084,0-5.586-2.5-5.586-5.587V273.44c0-3.086,2.502-5.586,5.586-5.586
	s5.586,2.5,5.586,5.586v69.544C299.383,346.071,296.881,348.571,293.797,348.571z"/>
<path fill="#FF8103" d="M229.177,85.893c-2.923,0-4.936-0.331-5.151-0.368c-3.04-0.521-5.084-3.407-4.562-6.446
	c0.521-3.042,3.409-5.083,6.447-4.563c2.521,0.409,10.082,0.662,14.471-3.069c2.741-2.33,4.071-5.986,4.071-11.173
	c0-3.433-0.992-6.01-3.033-7.879c-4.468-4.086-13.237-4.316-15.955-4.073c-3.072,0.272-5.787-1.995-6.06-5.066
	c-0.274-3.072,1.996-5.788,5.068-6.06c1.573-0.141,15.639-1.136,24.487,6.958c4.359,3.988,6.663,9.563,6.663,16.12
	c0,8.581-2.716,15.221-8.075,19.74C241.703,84.944,234.132,85.893,229.177,85.893z"/>
<path fill="#FF8103" d="M390.783,648.689c-1.853,0-3.665-0.919-4.728-2.602l-10.891-17.235c-1.648-2.606-0.87-6.056,1.737-7.704
	c2.606-1.647,6.057-0.87,7.705,1.736l10.893,17.237c1.648,2.606,0.87,6.056-1.739,7.702
	C392.835,648.409,391.803,648.689,390.783,648.689z"/>
<path fill="#FF8103" d="M239.522,434.319c-0.806,0.344-1.611,0.574-2.302,0.574c-2.883,0-4.837-2.533-4.837-5.182
	c0-1.729,0.92-3.456,3.108-4.608l14.052-7.141c1.151-0.576,2.189-0.805,3.109-0.805c2.878,0,4.954,2.303,4.954,4.836
	c0,1.498-0.576,3.342-2.535,4.377L239.522,434.319z"/>
</svg>
