<?xml version="1.0" encoding="utf-8"?>
<!-- Generator: Adobe Illustrator 16.0.0, SVG Export Plug-In . SVG Version: 6.00 Build 0)  -->
<!DOCTYPE svg PUBLIC "-//W3C//DTD SVG 1.1//EN" "http://www.w3.org/Graphics/SVG/1.1/DTD/svg11.dtd">
<svg version="1.1" id="Layer_1" xmlns="http://www.w3.org/2000/svg" xmlns:xlink="http://www.w3.org/1999/xlink" x="0px" y="0px"
	 width="494px" height="66px" viewBox="232.5 246.5 494 66" enable-background="new 232.5 246.5 494 66" xml:space="preserve">
<g>
	<g>
		<path fill="#FFFFFF" d="M348.265,283.161c1.483,0.276,2.911-0.656,3.27-2.103l0,0l0,0c0.013-0.054,0.025-0.107,0.036-0.162
			c0.071-0.383,0.168-0.84,0.229-1.326c1.238-5.868,4.494-9.78,9.977-9.78c5.843,0,9.159,4.443,10.195,10.963
			c0.009,0.072,0.019,0.145,0.033,0.217c0.303,1.527,1.772,2.521,3.298,2.219c1.469-0.291,2.472-1.668,2.274-3.134l0,0l0,0
			c-0.002-0.02-0.006-0.039-0.009-0.059c-0.005-0.037-0.011-0.074-0.019-0.111c0,0,0,0.001,0,0.002c0-0.001,0-0.002,0-0.002
			c-0.004-0.019-0.008-0.036-0.013-0.054c0.004,0.018,0.008,0.035,0.012,0.053c-1.521-8.895-6.801-15.195-15.773-15.195
			c-8.899,0-14.165,6.199-15.734,14.979c0,0,0,0,0,0.001c-0.008,0.029-0.015,0.06-0.021,0.089c0,0.003-0.001,0.005-0.001,0.008
			c-0.006,0.03-0.013,0.061-0.019,0.09c-0.008,0.046-0.016,0.092-0.022,0.139c-0.006,0.044-0.01,0.088-0.015,0.132
			c0,0.002,0,0.004-0.001,0.007c0-0.001,0-0.001,0-0.001C345.837,281.566,346.82,282.891,348.265,283.161z"/>
		<polygon fill="#FFFFFF" points="377.55,279.885 377.549,279.884 377.549,279.885 		"/>
	</g>
	<g>
		<path fill="#FFFFFF" d="M375.288,287.955c-1.482-0.277-2.911,0.654-3.269,2.102l0,0l0,0c-0.013,0.053-0.026,0.107-0.036,0.164
			c-0.072,0.381-0.168,0.838-0.229,1.323c-1.237,5.868-4.494,9.78-9.977,9.78c-5.843,0-9.158-4.443-10.195-10.963
			c-0.009-0.071-0.02-0.145-0.033-0.215c-0.303-1.529-1.772-2.522-3.298-2.221c-1.469,0.291-2.471,1.668-2.274,3.135l0,0l0,0
			c0.003,0.021,0.005,0.039,0.009,0.06c0.006,0.036,0.012,0.073,0.019,0.11v-0.002v0.002c0.004,0.02,0.008,0.035,0.012,0.055
			c-0.004-0.02-0.008-0.035-0.012-0.055c1.521,8.896,6.801,15.195,15.773,15.195c8.9,0,14.166-6.199,15.734-14.979l0,0
			c0.008-0.03,0.015-0.062,0.021-0.09c0.001-0.004,0.001-0.006,0.002-0.008c0.006-0.031,0.013-0.061,0.018-0.09
			c0.009-0.047,0.016-0.094,0.022-0.14c0.006-0.043,0.011-0.088,0.015-0.132c0-0.002,0.001-0.004,0.001-0.006l0,0
			C377.716,289.548,376.734,288.225,375.288,287.955z"/>
		<polygon fill="#FFFFFF" points="346.004,291.23 346.004,291.23 346.004,291.23 		"/>
	</g>
	<path fill="#FFFFFF" d="M328.55,302.713c0,1.799-1.045,3.135-2.786,3.135c-1.857,0-2.786-1.336-2.786-3.135v-25.018
		c0-1.538,1.247-2.786,2.786-2.786c1.538,0,2.786,1.248,2.786,2.786V302.713z"/>
	<path fill="#FFFFFF" d="M595.433,293.152c0,1.801-1.045,3.135-2.786,3.135c-1.856,0-2.785-1.334-2.785-3.135v-15.296
		c0-1.539,1.248-2.786,2.785-2.786c1.538,0,2.786,1.247,2.786,2.786V293.152z"/>
	<path fill="#FFFFFF" d="M381.837,296.85c0-1.625,1.103-2.844,2.786-2.844c1.045,0,1.857,0.465,2.555,1.566
		c2.379,3.89,4.933,5.746,10.563,5.746c5.573,0,8.648-2.264,8.648-6.732c0-10.622-23.043-4.236-23.043-18.283
		c0-7.953,6.733-11.667,13.931-11.667c5.978,0,9.983,2.089,12.479,6.269c0.522,0.871,0.754,1.684,0.754,2.38
		c0,1.856-1.334,2.901-2.844,2.901c-1.044,0-1.916-0.521-2.495-1.683c-1.625-3.425-4.006-4.76-7.895-4.76
		c-4.817,0-8.358,1.857-8.358,6.56c0,8.126,23.043,3.308,23.043,18.167c0,8.01-7.023,11.956-14.221,11.956
		c-6.385,0-11.783-2.204-15.208-7.487C382.069,298.186,381.837,297.488,381.837,296.85z"/>
	<g>
		<path fill="#FFFFFF" d="M655.304,283.309c1.482,0.276,2.911-0.654,3.271-2.102v0.001c0-0.001,0-0.001,0-0.001
			c0.014-0.055,0.024-0.107,0.036-0.164c0.07-0.381,0.167-0.839,0.229-1.324c1.236-5.868,4.493-9.78,9.977-9.78
			c5.844,0,9.158,4.443,10.194,10.963c0.01,0.072,0.021,0.144,0.033,0.216c0.303,1.528,1.771,2.521,3.298,2.219
			c1.47-0.291,2.473-1.667,2.274-3.134l0,0l0,0c-0.002-0.02-0.006-0.039-0.009-0.059c-0.007-0.037-0.013-0.073-0.02-0.11
			c0,0,0,0,0,0.001c0-0.001,0-0.002-0.001-0.003c-0.003-0.018-0.008-0.035-0.012-0.053c0.004,0.018,0.009,0.035,0.012,0.053
			c-1.521-8.895-6.801-15.195-15.771-15.195c-8.899,0-14.165,6.199-15.734,14.98l0,0c-0.008,0.03-0.015,0.06-0.021,0.089
			c-0.001,0.003-0.001,0.006-0.001,0.008c-0.009,0.03-0.015,0.061-0.021,0.09c-0.008,0.046-0.016,0.093-0.021,0.139
			c-0.007,0.044-0.012,0.088-0.016,0.132c0,0.002-0.001,0.004-0.001,0.007l0,0C652.876,281.715,653.858,283.038,655.304,283.309z"/>
		<polygon fill="#FFFFFF" points="684.588,280.033 684.587,280.031 684.587,280.031 		"/>
	</g>
	<g>
		<path fill="#FFFFFF" d="M682.327,288.104c-1.482-0.277-2.911,0.654-3.271,2.101l0,0l0,0c-0.014,0.054-0.025,0.108-0.035,0.164
			c-0.072,0.381-0.169,0.839-0.229,1.323c-1.237,5.869-4.494,9.781-9.977,9.781c-5.845,0-9.158-4.442-10.195-10.964
			c-0.008-0.071-0.02-0.143-0.033-0.215c-0.303-1.528-1.771-2.521-3.297-2.219c-1.47,0.29-2.473,1.667-2.275,3.134l0,0l0,0
			c0.003,0.02,0.006,0.039,0.009,0.059c0.007,0.037,0.013,0.073,0.02,0.11v-0.001c0,0.001,0,0.002,0,0.002
			c0.004,0.018,0.009,0.036,0.013,0.055c-0.004-0.019-0.009-0.035-0.013-0.055c1.521,8.895,6.801,15.195,15.773,15.195
			c8.898,0,14.164-6.198,15.733-14.979l0,0c0.008-0.031,0.015-0.061,0.021-0.091c0.001-0.002,0.001-0.005,0.002-0.008
			c0.007-0.03,0.013-0.06,0.019-0.089c0.009-0.047,0.018-0.094,0.021-0.141c0.007-0.043,0.012-0.088,0.015-0.131
			c0.001-0.002,0.002-0.005,0.002-0.007l0,0C684.755,289.695,683.771,288.373,682.327,288.104z"/>
		<polygon fill="#FFFFFF" points="653.042,291.378 653.042,291.379 653.042,291.379 		"/>
	</g>
	<path fill="#FFFFFF" d="M688.874,296.997c0-1.625,1.104-2.845,2.787-2.845c1.044,0,1.856,0.465,2.555,1.568
		c2.379,3.889,4.934,5.745,10.563,5.745c5.571,0,8.647-2.264,8.647-6.733c0-10.621-23.044-4.236-23.044-18.282
		c0-7.952,6.732-11.667,13.932-11.667c5.979,0,9.982,2.09,12.479,6.269c0.521,0.87,0.755,1.684,0.755,2.38
		c0,1.857-1.335,2.902-2.844,2.902c-1.045,0-1.916-0.522-2.497-1.684c-1.625-3.425-4.005-4.76-7.895-4.76
		c-4.816,0-8.357,1.857-8.357,6.56c0,8.126,23.044,3.309,23.044,18.167c0,8.011-7.023,11.957-14.221,11.957
		c-6.386,0-11.783-2.205-15.208-7.487C689.106,298.332,688.874,297.636,688.874,296.997z"/>
	<path fill="#FFFFFF" d="M470.809,268.484c0-1.741,1.104-3.134,2.845-3.134c1.684,0,2.729,1.393,2.729,3.134v22.521
		c0,7.546,3.483,10.447,9.229,10.447c5.688,0,9.111-2.901,9.111-10.447v-22.521c0-1.741,1.045-3.134,2.786-3.134
		c1.742,0,2.786,1.393,2.786,3.134v22.521c0,9.113-5.107,15.556-14.685,15.556c-9.637,0-14.803-6.441-14.803-15.381L470.809,268.484
		L470.809,268.484z M482.823,260.648c-0.406,0.174-0.812,0.29-1.16,0.29c-1.451,0-2.438-1.276-2.438-2.611
		c0-0.871,0.465-1.742,1.566-2.321l7.082-3.6c0.58-0.29,1.103-0.406,1.566-0.406c1.45,0,2.496,1.161,2.496,2.438
		c0,0.755-0.291,1.684-1.277,2.206L482.823,260.648z"/>
	<path fill="#FFFFFF" d="M519.972,306.003c-1.412,0-2.556-1.144-2.556-2.555s1.144-2.556,2.556-2.556l5.283-0.021
		c4.18,0,5.921-2.438,5.921-6.269c0-3.715-1.684-6.617-6.327-6.617l-4.88-0.002c-1.409,0-2.553-1.143-2.553-2.553
		s1.144-2.554,2.553-2.554h3.081c4.179,0,6.094-2.496,6.094-6.037s-1.915-6.385-6.094-6.385h-1.627l-1.438,0.026
		c-1.418,0-2.567-1.149-2.567-2.567c0-1.417,1.149-2.566,2.567-2.566h1.053h2.361c6.095,0,11.317,4.005,11.317,11.492
		c0,4.47-2.438,7.081-4.701,8.185c3.773,1.276,6.732,4.761,6.732,9.404c0,6.56-4.585,11.551-11.086,11.551L519.972,306.003z"/>
	<path fill="#FFFFFF" d="M630.899,264.77c4.99,0,8.764,1.045,12.711,5.05c0.755,0.755,1.045,1.567,1.045,2.264
		c0,1.567-1.451,2.845-2.902,2.845c-0.697,0-1.335-0.29-1.916-0.929c-2.611-2.96-5.455-4.121-8.938-4.121
		c-8.068,0-11.029,8.01-11.029,15.788c0,7.778,2.961,15.787,11.029,15.787c3.481,0,6.325-1.16,8.938-4.121
		c0.581-0.64,1.219-0.929,1.916-0.929c1.451,0,2.902,1.277,2.902,2.845c0,0.696-0.29,1.51-1.045,2.265
		c-3.947,4.004-7.721,5.049-12.711,5.049c-10.564,0-16.718-8.125-16.718-20.896C614.183,272.896,620.335,264.77,630.899,264.77z"/>
	<path fill="#FFFFFF" d="M281.911,302.555c0,1.799-1.045,3.133-2.786,3.133c-1.857,0-2.786-1.334-2.786-3.133v-34.712
		c0-1.539,1.247-2.786,2.786-2.786s2.786,1.247,2.786,2.786V302.555z"/>
	<path fill="#FFFFFF" d="M442.079,302.848c0,1.799-1.044,3.135-2.786,3.135c-1.857,0-2.786-1.336-2.786-3.135v-34.71
		c0-1.539,1.248-2.786,2.786-2.786c1.539,0,2.786,1.247,2.786,2.786V302.848z"/>
	<path fill="#FFFFFF" d="M298.679,265.057c1.659,0,2.889,0.963,2.889,2.567c0,1.711-1.23,2.566-2.889,2.566h-19.773
		c-1.418,0-2.567-1.149-2.567-2.566c0-1.418,1.149-2.567,2.567-2.567H298.679z"/>
	<path fill="#FFFFFF" d="M339.302,265.189c1.659,0,2.888,0.963,2.888,2.567c0,1.711-1.229,2.566-2.888,2.566h-27.397
		c-1.418,0-2.567-1.149-2.567-2.566c0-1.418,1.149-2.567,2.567-2.567H339.302z"/>
	<path fill="#FFFFFF" d="M570.429,300.848c1.658,0,2.889,0.963,2.889,2.566c0,1.712-1.229,2.566-2.889,2.566h-21.188
		c-1.418,0-2.567-1.148-2.567-2.566s1.149-2.566,2.567-2.566H570.429z"/>
	<path fill="#FFFFFF" d="M601.831,300.848c1.658,0,2.889,0.963,2.889,2.566c0,1.712-1.229,2.566-2.889,2.566h-18.69
		c-1.419,0-2.566-1.148-2.566-2.566s1.147-2.566,2.566-2.566H601.831z"/>
	<path fill="#FFFFFF" d="M601.831,265.351c1.658,0,2.889,0.962,2.889,2.566c0,1.712-1.229,2.567-2.889,2.567h-18.69
		c-1.419,0-2.566-1.149-2.566-2.567c0-1.417,1.147-2.566,2.566-2.566H601.831z"/>
	<path fill="#FFFFFF" d="M295.014,282.324c1.658,0,2.888,0.963,2.888,2.566c0,1.711-1.229,2.567-2.888,2.567h-7.667
		c-1.417,0-2.567-1.149-2.567-2.567s1.149-2.566,2.567-2.566H295.014z"/>
	<path fill="#FFFFFF" d="M300.672,300.016c1.658,0,2.888,0.963,2.888,2.566c0,1.711-1.23,2.566-2.888,2.566h-21.766
		c-1.418,0-2.567-1.149-2.567-2.566c0-1.418,1.149-2.566,2.567-2.566H300.672z"/>
	<path fill="#FFFFFF" d="M552.247,301.848c0,1.799-1.045,3.135-2.786,3.135c-1.857,0-2.787-1.336-2.787-3.135v-33.71
		c0-1.539,1.248-2.786,2.787-2.786c1.538,0,2.786,1.247,2.786,2.786V301.848z"/>
	<path fill="#FFFFFF" d="M514.284,302.848c0,1.799-1.045,3.135-2.785,3.135c-1.857,0-2.787-1.336-2.787-3.135v-34.71
		c0-1.539,1.248-2.786,2.787-2.786s2.785,1.247,2.785,2.786V302.848z"/>
	<path fill="#FFFFFF" d="M450.92,290.461c-1.43,0-2.848-0.001-2.848-0.001c-1.41,0-2.555-1.144-2.555-2.554s1.145-2.555,2.555-2.555
		l3.718,0.002c4.876,0,7.563-3.346,7.563-7.641c0-4.412-2.688-7.256-7.563-7.256h-3.07h-0.647c-1.41,0-2.555-1.144-2.555-2.554
		c0-1.41,1.145-2.554,2.555-2.554h3.37c8.532,0,13.483,5.107,13.483,12.363C464.927,283.229,463.938,290.461,450.92,290.461z"/>
	<path fill="#FFFFFF" d="M243.745,305.893c-1.554,0-2.814-1.26-2.814-2.813V268.03c0-1.555,1.26-2.814,2.814-2.814
		c1.555,0,2.815,1.26,2.815,2.814v35.049C246.56,304.633,245.3,305.893,243.745,305.893z"/>
	<path fill="#FFFFFF" d="M254.677,289.768c-1.474,0-2.489-0.166-2.596-0.185c-1.532-0.263-2.562-1.718-2.299-3.25
		c0.262-1.532,1.719-2.562,3.25-2.3c1.271,0.207,5.081,0.335,7.293-1.547c1.38-1.174,2.052-3.016,2.052-5.63
		c0-1.73-0.5-3.029-1.529-3.97c-2.252-2.061-6.671-2.176-8.042-2.054c-1.547,0.138-2.916-1.006-3.053-2.554
		c-0.138-1.549,1.006-2.916,2.554-3.054c0.794-0.071,7.882-0.573,12.341,3.507c2.197,2.01,3.358,4.819,3.358,8.124
		c0,4.325-1.369,7.67-4.068,9.948C260.989,289.29,257.174,289.768,254.677,289.768z"/>
	<path fill="#FFFFFF" d="M266.231,305.895c-0.933,0-1.846-0.465-2.382-1.312l-5.489-8.686c-0.831-1.314-0.438-3.054,0.876-3.885
		c1.314-0.83,3.053-0.438,3.883,0.877l5.489,8.686c0.831,1.312,0.438,3.053-0.875,3.883
		C267.266,305.752,266.746,305.895,266.231,305.895z"/>
</g>
</svg>
